<?xml version="1.0" standalone="no"?>
<!DOCTYPE svg PUBLIC "-//W3C//DTD SVG 20010904//EN"
 "http://www.w3.org/TR/2001/REC-SVG-20010904/DTD/svg10.dtd">
<svg version="1.0" xmlns="http://www.w3.org/2000/svg"
 width="234.000000pt" height="215.000000pt" viewBox="0 0 234.000000 215.000000"
 preserveAspectRatio="xMidYMid meet">

<g transform="translate(0.000000,215.000000) scale(0.100000,-0.100000)"
fill="rgba(7%,23%,14%,1)" stroke="none">
<path d="M741 1406 c-667 -667 -742 -746 -736 -767 8 -28 278 -304 317 -325
22 -12 111 -14 520 -14 l493 0 502 502 c277 277 503 510 503 518 0 23 -811
830 -835 830 -13 0 -277 -258 -764 -744z m411 -433 c181 -181 278 -285 278
-298 0 -25 -153 -180 -193 -194 -18 -7 -162 -11 -394 -11 -310 0 -370 2 -398
16 -49 23 -175 157 -175 185 0 35 545 579 580 579 19 0 87 -62 302 -277z"/>
<path d="M340 80 l0 -80 845 0 846 0 -3 78 -3 77 -842 3 -843 2 0 -80z"/>
</g>
</svg>
