<?xml version="1.0" standalone="no"?>
<!DOCTYPE svg PUBLIC "-//W3C//DTD SVG 20010904//EN"
 "http://www.w3.org/TR/2001/REC-SVG-20010904/DTD/svg10.dtd">
<svg version="1.0" xmlns="http://www.w3.org/2000/svg"
 width="458.000000pt" height="567.000000pt" viewBox="0 0 458.000000 567.000000"
 preserveAspectRatio="xMidYMid meet">

<g transform="translate(0.000000,567.000000) scale(0.100000,-0.100000)"
fill="rgba(7%,23%,14%,1)" stroke="none">
<path d="M3637 5313 c-40 -37 -148 -142 -241 -233 -93 -91 -179 -174 -191
-185 -13 -11 -48 -45 -79 -75 l-57 -55 -972 -5 -972 -5 -47 -23 c-72 -35 -133
-96 -167 -164 l-31 -61 0 -1205 0 -1204 30 -63 c34 -71 93 -129 168 -167 l47
-23 1050 0 1050 0 50 25 c71 35 149 117 174 185 21 55 21 63 21 1248 l0 1192
-25 59 c-18 44 -21 63 -13 73 8 10 6 13 -9 13 -11 0 -38 14 -59 31 -44 35
-150 89 -176 89 -9 0 -19 4 -22 9 -7 11 409 421 428 421 7 0 29 -17 47 -37 24
-27 41 -37 57 -35 12 2 22 6 22 10 0 3 -21 28 -47 54 l-47 48 49 50 c27 28 52
50 56 50 4 0 29 -20 57 -45 34 -31 59 -45 78 -45 l27 0 -24 26 -24 26 -6 -24
c-6 -20 -7 -19 -8 8 -1 36 -28 64 -62 64 -19 0 -21 2 -9 10 13 9 13 11 0 20
-30 20 -53 9 -123 -57z m-787 -768 c-58 -58 -99 -105 -92 -105 6 0 12 -4 12
-10 0 -5 -10 -10 -23 -10 -16 0 -88 -64 -251 -222 -126 -122 -223 -224 -217
-226 19 -6 12 -21 -13 -24 -25 -3 -486 -442 -486 -463 0 -7 -10 -15 -21 -18
-17 -5 -20 -11 -15 -29 3 -13 6 -35 6 -50 0 -21 5 -28 20 -28 13 0 20 7 20 20
0 11 7 20 15 20 10 0 15 10 15 28 0 24 46 74 283 308 155 154 372 368 482 475
109 107 255 250 323 317 l125 124 87 -4 c75 -3 92 -7 129 -31 66 -44 65 -52
-25 -134 l-79 -73 33 0 c27 0 44 10 90 55 31 30 59 55 63 55 27 0 29 -102 29
-1229 l0 -1167 -33 -54 c-21 -37 -48 -64 -81 -85 l-49 -30 -1016 -3 -1016 -2
-55 32 c-35 21 -67 51 -87 82 l-33 48 0 1179 c0 978 2 1185 14 1213 20 48 71
101 119 125 42 21 49 21 937 21 l895 0 -105 -105z"/>
<path d="M3130 4366 l0 -40 35 34 c19 19 35 35 35 36 0 1 -16 4 -35 6 -35 4
-35 4 -35 -36z"/>
<path d="M3075 4341 l-39 -41 37 0 c41 0 51 12 45 55 l-3 26 -40 -40z"/>
<path d="M3015 4290 c-2 -4 -1 -19 3 -34 l7 -27 28 29 28 30 -31 4 c-17 3 -33
2 -35 -2z"/>
<path d="M2958 4224 c-47 -44 -47 -44 -19 -44 41 0 74 29 69 62 l-3 27 -47
-45z"/>
<path d="M2897 4163 c-4 -3 -7 -17 -7 -30 l0 -25 29 24 c17 13 30 26 30 31 1
9 -43 9 -52 0z"/>
<path d="M2828 4103 c-35 -36 -48 -57 -48 -78 l0 -28 26 24 26 24 -24 6 c-19
6 -16 7 13 8 44 1 61 19 57 61 l-3 31 -47 -48z"/>
<path d="M2715 3991 l-49 -51 30 0 c40 0 77 38 72 74 -3 27 -4 26 -53 -23z"/>
<path d="M2603 3880 l-52 -50 33 0 c25 0 42 11 81 50 l49 50 -29 0 c-22 0 -44
-14 -82 -50z"/>
<path d="M2540 3788 l0 -32 30 29 c17 16 30 30 30 32 0 2 -13 3 -30 3 -27 0
-30 -3 -30 -32z"/>
<path d="M2473 3757 c-42 -44 -53 -62 -53 -88 l0 -33 56 57 c47 48 55 61 52
88 l-3 31 -52 -55z"/>
<path d="M2350 3635 l-44 -45 29 0 c39 1 75 31 75 64 0 14 -4 26 -8 26 -4 0
-28 -20 -52 -45z"/>
<path d="M2300 3553 l0 -26 25 23 c14 13 25 25 25 27 0 2 -11 3 -25 3 -20 0
-25 -5 -25 -27z"/>
<path d="M2255 3540 l-29 -30 37 0 c36 0 37 1 31 28 -4 15 -8 28 -9 29 -1 2
-14 -11 -30 -27z"/>
<path d="M2196 3479 c2 -4 -1 -9 -7 -11 -6 -2 -9 -16 -7 -31 l3 -28 33 34 34
35 -31 4 c-16 2 -28 1 -25 -3z"/>
<path d="M2115 3411 l-49 -51 35 0 c46 0 72 27 67 70 l-3 31 -50 -50z"/>
<path d="M1828 3417 c-5 -45 14 -66 54 -58 l27 6 -38 44 -38 45 -5 -37z"/>
<path d="M1738 3318 c0 -18 -3 -44 -5 -58 -15 -116 -15 -140 0 -140 32 0 87
33 87 53 0 15 -5 18 -24 13 -14 -3 -27 -3 -29 1 -3 5 1 43 7 86 l12 77 -23 0
c-19 0 -23 -6 -25 -32z"/>
<path d="M1870 3342 c0 -5 14 -21 30 -37 l30 -29 0 37 c0 34 -2 37 -30 37 -16
0 -30 -4 -30 -8z"/>
<path d="M2026 3321 c-34 -36 -42 -37 -68 -14 -17 16 -18 14 -17 -44 l2 -61
26 9 c41 14 99 88 92 117 l-6 23 -29 -30z"/>
<path d="M2070 3330 c0 -17 3 -19 19 -10 32 16 34 30 7 30 -19 0 -26 -5 -26
-20z"/>
<path d="M1880 3222 c-32 -13 -46 -24 -48 -40 -4 -27 8 -28 58 -2 26 13 40 27
40 40 0 11 -1 20 -2 19 -2 0 -23 -8 -48 -17z"/>
<path d="M3880 5195 c33 -34 33 -35 15 -55 -18 -20 -18 -20 18 -20 26 0 37 4
37 15 0 8 5 15 10 15 6 0 10 5 10 11 0 5 -4 7 -10 4 -5 -3 -10 0 -10 8 0 23
-45 57 -75 57 l-29 0 34 -35z"/>
<path d="M3690 5101 c0 -5 7 -14 15 -21 13 -10 15 -9 15 9 0 12 -6 21 -15 21
-8 0 -15 -4 -15 -9z"/>
<path d="M3730 5086 c0 -13 7 -29 15 -36 8 -7 15 -19 15 -27 0 -8 -7 -21 -15
-29 -8 -9 -15 -30 -15 -47 0 -31 2 -30 95 63 89 88 94 95 70 98 -34 4 -55 -13
-56 -47 -1 -15 -3 -19 -6 -10 -2 10 -11 15 -21 12 -10 -2 -28 7 -41 21 -30 32
-41 33 -41 2z"/>
<path d="M3677 4925 l-38 -40 27 -3 c35 -5 56 18 52 54 l-3 29 -38 -40z"/>
<path d="M3570 4823 l-55 -53 35 0 c28 1 44 10 84 49 l48 48 -29 5 c-23 3 -38
-5 -83 -49z"/>
<path d="M3494 4746 c-3 -8 -4 -24 -2 -36 3 -20 5 -19 37 14 l35 36 -32 0
c-19 0 -35 -6 -38 -14z"/>
<path d="M3435 4691 l-39 -41 31 0 c37 0 56 20 51 55 l-3 26 -40 -40z"/>
<path d="M1689 1506 c-100 -36 -149 -113 -149 -238 0 -52 6 -83 21 -115 78
-161 318 -163 401 -4 36 69 40 181 7 247 -49 103 -169 150 -280 110z m132 -92
c39 -20 59 -68 59 -144 0 -72 -19 -114 -60 -135 -59 -30 -127 -8 -155 51 -19
41 -19 137 0 178 29 60 96 82 156 50z"/>
<path d="M2070 1275 l0 -235 115 0 c131 0 183 15 216 62 25 35 29 95 10 132
-8 14 -33 35 -55 46 -23 11 -34 20 -25 20 8 0 28 14 44 30 57 60 29 147 -54
170 -20 5 -84 10 -143 10 l-108 0 0 -235z m212 138 c41 -37 5 -93 -62 -93
l-40 0 0 55 0 55 42 0 c24 0 49 -7 60 -17z m13 -187 c11 -8 18 -26 18 -46 0
-43 -24 -60 -85 -60 l-48 0 0 60 0 60 48 0 c27 0 57 -6 67 -14z"/>
<path d="M2510 1275 l0 -235 141 0 140 0 -3 43 -3 42 -87 3 -88 3 0 49 0 49
78 3 77 3 3 43 3 42 -80 0 -81 0 0 50 0 49 83 3 82 3 3 43 3 42 -135 0 -136 0
0 -235z"/>
<path d="M835 648 c-3 -8 -4 -112 -3 -233 l3 -220 148 -3 147 -3 0 41 0 40
-95 0 -95 0 0 60 0 60 75 0 75 0 0 35 0 35 -75 0 -75 0 0 60 0 60 96 0 95 0
-3 38 -3 37 -143 3 c-110 2 -144 0 -147 -10z"/>
<path d="M1374 647 c-2 -7 -3 -111 -2 -232 l3 -220 45 0 45 0 1 135 c0 74 3
137 6 140 3 3 51 -52 106 -122 107 -135 137 -162 174 -156 l23 3 0 230 0 230
-40 0 -40 0 -5 -145 -5 -145 -105 130 c-57 71 -112 137 -122 147 -21 21 -76
24 -84 5z"/>
<path d="M2017 654 c-4 -4 -7 -22 -7 -41 l0 -33 65 0 65 0 2 -192 3 -193 50 0
50 0 3 193 2 192 66 0 65 0 -3 38 -3 37 -176 3 c-96 1 -178 -1 -182 -4z"/>
<path d="M2610 425 l0 -235 50 0 50 0 0 85 0 85 30 0 c26 0 34 -8 75 -79 l46
-80 55 -7 c30 -3 58 -4 61 -1 6 7 -62 126 -95 167 l-20 25 35 30 c42 37 56 89
39 147 -21 74 -77 96 -248 97 l-78 1 0 -235z m208 139 c27 -18 30 -69 6 -102
-13 -19 -23 -23 -62 -20 l-47 3 -3 54 c-2 29 -1 60 2 67 7 19 76 18 104 -2z"/>
<path d="M3134 644 c4 -10 40 -72 81 -140 l74 -122 3 -94 3 -93 53 -3 52 -3 0
89 0 90 80 138 c44 76 80 142 80 146 0 5 -20 8 -45 8 -57 0 -69 -12 -120 -122
-22 -48 -42 -87 -45 -87 -3 -1 -30 45 -60 102 l-55 102 -54 3 c-47 3 -53 1
-47 -14z"/>
</g>
</svg>
