<?xml version="1.0" standalone="no"?>
<!DOCTYPE svg PUBLIC "-//W3C//DTD SVG 20010904//EN"
 "http://www.w3.org/TR/2001/REC-SVG-20010904/DTD/svg10.dtd">
<svg version="1.0" xmlns="http://www.w3.org/2000/svg"
 width="99.000000pt" height="99.000000pt" viewBox="0 0 99.000000 99.000000"
 preserveAspectRatio="xMidYMid meet">

<g transform="translate(0.000000,99.000000) scale(0.100000,-0.100000)"
fill="rgba(7%,23%,14%,1)" stroke="none">
<path d="M420 800 c0 -22 -5 -40 -11 -40 -6 0 -26 -7 -45 -16 -94 -45 -99
-191 -9 -250 14 -9 65 -28 113 -41 99 -28 112 -36 112 -69 0 -51 -99 -76 -155
-40 -14 9 -28 30 -32 46 -5 27 -10 30 -42 30 -20 0 -47 -3 -60 -7 -20 -5 -22
-10 -17 -41 9 -56 49 -107 100 -128 43 -18 46 -21 46 -56 l0 -38 65 0 65 0 0
40 c0 30 4 40 16 40 32 0 86 34 110 69 32 47 33 128 3 178 -25 40 -66 62 -177
93 -87 24 -111 44 -89 74 16 21 74 31 110 17 17 -7 32 -23 39 -42 10 -30 11
-31 67 -24 31 4 58 8 60 11 2 2 -1 22 -8 43 -14 49 -61 97 -101 106 -27 6 -30
10 -30 46 l0 39 -65 0 -65 0 0 -40z"/>
</g>
</svg>
