<?xml version="1.0" standalone="no"?>
<!DOCTYPE svg PUBLIC "-//W3C//DTD SVG 20010904//EN"
 "http://www.w3.org/TR/2001/REC-SVG-20010904/DTD/svg10.dtd">
<svg version="1.0" xmlns="http://www.w3.org/2000/svg"
 width="213.000000pt" height="236.000000pt" viewBox="0 0 213.000000 236.000000"
 preserveAspectRatio="xMidYMid meet">

<g transform="translate(0.000000,236.000000) scale(0.100000,-0.100000)"
fill="rgba(7%,23%,14%,1)" stroke="none">
<path d="M1535 2237 c-27 -14 -76 -52 -108 -84 l-59 -60 262 -277 c144 -152
263 -276 265 -276 2 0 28 25 57 56 70 73 98 132 98 210 0 72 -13 115 -51 167
-44 62 -226 245 -261 263 -18 9 -59 19 -93 21 -49 3 -69 0 -110 -20z"/>
<path d="M801 1486 c-250 -266 -458 -492 -462 -503 -8 -23 8 -61 33 -77 38
-23 4 -56 942 942 l30 32 -44 45 -45 44 -454 -483z"/>
<path d="M995 1275 c-253 -268 -468 -501 -477 -518 -22 -39 -22 -59 -3 -97 27
-51 78 -65 126 -32 28 19 939 982 939 993 0 4 -28 37 -63 74 l-62 68 -460
-488z"/>
<path d="M1235 1019 c-247 -263 -454 -488 -459 -499 -19 -42 32 -97 76 -81 9
3 222 224 472 489 l456 484 -38 44 c-20 24 -41 43 -47 43 -5 0 -212 -216 -460
-480z"/>
<path d="M151 479 c-40 -171 -71 -312 -69 -314 2 -3 532 135 574 150 8 2 4 19
-12 51 -13 26 -24 54 -24 62 0 9 -6 12 -17 8 -30 -12 -117 14 -164 49 -57 41
-98 119 -104 195 -3 50 -5 53 -43 70 -22 10 -43 23 -46 29 -4 6 -10 11 -14 11
-4 0 -40 -140 -81 -311z"/>
</g>
</svg>
