<?xml version="1.0" standalone="no"?>
<!DOCTYPE svg PUBLIC "-//W3C//DTD SVG 20010904//EN"
 "http://www.w3.org/TR/2001/REC-SVG-20010904/DTD/svg10.dtd">
<svg version="1.0" xmlns="http://www.w3.org/2000/svg"
 width="146.000000pt" height="150.000000pt" viewBox="0 0 146.000000 150.000000"
 preserveAspectRatio="xMidYMid meet">

<g transform="translate(0.000000,150.000000) scale(0.100000,-0.100000)"
fill="rgba(7%,23%,14%,1)" stroke="none">
<path d="M301 1467 c-8 -10 -6 -19 9 -35 19 -20 20 -36 20 -237 0 -216 0 -216
25 -240 l24 -25 344 0 c333 0 345 1 371 21 l26 20 0 225 0 224 78 0 78 0 57
-58 57 -58 -2 -614 -3 -615 -72 -3 -73 -3 0 340 0 340 -26 20 c-26 21 -36 21
-489 21 -441 0 -464 -1 -486 -19 l-24 -19 -3 -337 c-3 -317 -4 -338 -22 -358
-44 -47 -42 -47 607 -47 l604 0 24 25 25 24 0 638 0 638 -72 72 -72 73 -497 0
c-401 0 -499 -3 -508 -13z m759 -257 l0 -210 -332 2 -333 3 1 100 c1 55 2 148
3 208 l1 107 330 0 330 0 0 -210z m118 -813 l2 -327 -452 2 -452 3 1 25 c0 14
1 161 2 328 l1 302 448 -2 447 -3 3 -328z"/>
<path d="M745 1349 c-40 -23 -45 -40 -45 -144 0 -96 1 -103 26 -126 23 -21 35
-24 109 -24 120 0 125 6 125 150 0 141 -6 149 -119 153 -44 1 -84 -2 -96 -9z
m155 -144 l0 -86 -67 3 -68 3 -3 69 c-2 38 -1 75 2 83 4 9 25 13 71 13 l65 0
0 -85z"/>
</g>
</svg>
