<?xml version="1.0" standalone="no"?>
<!DOCTYPE svg PUBLIC "-//W3C//DTD SVG 20010904//EN"
 "http://www.w3.org/TR/2001/REC-SVG-20010904/DTD/svg10.dtd">
<svg version="1.0" xmlns="http://www.w3.org/2000/svg"
 width="362.000000pt" height="139.000000pt" viewBox="0 0 362.000000 139.000000"
 preserveAspectRatio="xMidYMid meet">

<g transform="translate(0.000000,139.000000) scale(0.100000,-0.100000)"
fill="rgba(7%,23%,14%,1)" stroke="none">
<path d="M1753 1212 c-106 -97 -576 -525 -799 -727 -127 -116 -232 -214 -233
-220 -2 -5 22 -29 52 -53 l55 -44 474 419 c260 230 481 424 490 432 19 14 -24
52 756 -667 l241 -222 60 42 c33 24 59 45 58 48 -1 3 -240 231 -532 506 -291
275 -536 508 -544 517 -7 9 -16 17 -20 17 -3 -1 -29 -22 -58 -48z"/>
</g>
</svg>
